<?xml version="1.0" encoding="utf-8"?>
<!-- Generator: Adobe Illustrator 21.0.0, SVG Export Plug-In . SVG Version: 6.00 Build 0)  -->
<svg version="1.1" id="Calque_1" xmlns="http://www.w3.org/2000/svg" xmlns:xlink="http://www.w3.org/1999/xlink" x="0px" y="0px"
	 viewBox="0 0 595.3 410" style="enable-background:new 0 0 595.3 410;" xml:space="preserve">
<style type="text/css">
	.st0{fill:#D7D8D8;}
	.st1{fill:#1E1E1E;stroke:url(#SVGID_1_);stroke-width:2;stroke-miterlimit:10;}
	.st2{fill:#EEEEEF;}
	.st3{fill:#CECDCE;}
	.st4{fill:url(#SVGID_2_);}
	.st5{fill:url(#SVGID_3_);}
	.st6{fill:#BEBDBE;}
	.st7{fill:#5C5C5C;}
	.st8{fill:#2B2B2B;}
	.st9{fill:#9EBDE4;}
</style>
<g id="SurfaceBook">
	<polygon class="st0" points="301.5,369.5 297.6,369.5 49.7,369.5 49.7,377 298,377 546.3,377 546.3,369.5 	"/>
	<linearGradient id="SVGID_1_" gradientUnits="userSpaceOnUse" x1="47.5" y1="201.7926" x2="548.5" y2="201.7926">
		<stop  offset="0" style="stop-color:#9C9C9D"/>
		<stop  offset="4.240477e-02" style="stop-color:#AAA9AA"/>
		<stop  offset="0.1205" style="stop-color:#BDBCBC"/>
		<stop  offset="0.2005" style="stop-color:#C8C7C7"/>
		<stop  offset="0.2849" style="stop-color:#CCCBCB"/>
		<stop  offset="0.5108" style="stop-color:#DFDFDF"/>
		<stop  offset="0.7634" style="stop-color:#CCCBCB"/>
		<stop  offset="0.8482" style="stop-color:#B4B4B4"/>
		<stop  offset="0.9364" style="stop-color:#A2A2A3"/>
		<stop  offset="1" style="stop-color:#9C9C9D"/>
	</linearGradient>
	<path class="st1" d="M538.8,375H57.3c-4.8,0-8.8-3.9-8.8-8.8v-329c0-4.8,3.9-8.7,8.8-8.7h481.5c4.8,0,8.8,3.9,8.8,8.7v329
		C547.5,371.1,543.6,375,538.8,375z"/>
	<rect x="47.3" y="377" class="st2" width="501.3" height="4.4"/>
	<rect x="48.8" y="378.9" class="st3" width="498.4" height="2.7"/>
	<linearGradient id="SVGID_2_" gradientUnits="userSpaceOnUse" x1="18.2917" y1="389.7083" x2="577.7084" y2="389.7083">
		<stop  offset="7.556331e-03" style="stop-color:#AFAFB0"/>
		<stop  offset="2.099022e-02" style="stop-color:#BEBEBE"/>
		<stop  offset="3.682078e-02" style="stop-color:#C9C8C8"/>
		<stop  offset="5.591661e-02" style="stop-color:#CCCBCB"/>
		<stop  offset="9.719273e-02" style="stop-color:#CFCECE"/>
		<stop  offset="0.3228" style="stop-color:#DBDBDB"/>
		<stop  offset="0.5376" style="stop-color:#DFDFDF"/>
		<stop  offset="0.9545" style="stop-color:#CCCBCB"/>
		<stop  offset="0.9711" style="stop-color:#C2C1C1"/>
		<stop  offset="0.9911" style="stop-color:#AFAFB0"/>
	</linearGradient>
	<path class="st4" d="M389.1,382.7l-2.5,6.6H209.4l-2.5-6.6H18.3v11.3c0,1.5,1.2,2.7,2.7,2.7h554.1c1.5,0,2.7-1.2,2.7-2.7v-11.3
		H389.1z"/>
	<rect x="18.3" y="381.5" class="st2" width="559.4" height="1.3"/>
	<linearGradient id="SVGID_3_" gradientUnits="userSpaceOnUse" x1="205.4167" y1="386.2708" x2="390.0833" y2="386.2708">
		<stop  offset="0" style="stop-color:#EEEEEF"/>
		<stop  offset="0.5" style="stop-color:#FAF9F9"/>
		<stop  offset="1" style="stop-color:#EEEEEF"/>
	</linearGradient>
	<polygon class="st5" points="205.4,382.1 208.8,390.5 387.1,390.5 390.1,382.1 	"/>
	<path class="st6" d="M116.3,26.1H94.7c-0.6,0-1.1,0.5-1.1,1.1v0.4h23.7v-0.4C117.3,26.5,116.9,26.1,116.3,26.1z"/>
	<path class="st6" d="M172.1,26.1h-31.6c-0.6,0-1.1,0.5-1.1,1.1v0.4h33.7v-0.4C173.2,26.5,172.7,26.1,172.1,26.1z"/>
	<circle class="st7" cx="298" cy="38.9" r="2.8"/>
	<circle class="st7" cx="315.1" cy="38.9" r="2.8"/>
	<circle class="st8" cx="315.1" cy="38.9" r="2.5"/>
	<circle cx="315.1" cy="38.9" r="1.5"/>
	<circle cx="281" cy="38.9" r="2.8"/>
	<circle class="st8" cx="298" cy="38.9" r="1.5"/>
	<path class="st9" d="M298.8,38c0,0,0,0.1,0,0.1c0,0.7-0.5,1.2-1.2,1.2c-0.3,0-0.6-0.1-0.8-0.3c0.1,0.6,0.6,1.1,1.2,1.1
		c0.7,0,1.2-0.5,1.2-1.2C299.2,38.6,299.1,38.2,298.8,38z"/>
</g>
<g id="Picture">
	<g>
		<g>
			<defs>
				<rect id="SVGID_4_" x="67.5" y="340.6" width="461" height="14.4"/>
			</defs>
			<clipPath id="SVGID_5_">
				<use xlink:href="#SVGID_4_"  style="overflow:visible;"/>
			</clipPath>
		</g>
	</g>
	<g>
		<defs>
			<rect id="SVGID_6_" x="67.5" y="48.5" width="461" height="292.1"/>
		</defs>
		<clipPath id="SVGID_7_">
			<use xlink:href="#SVGID_6_"  style="overflow:visible;"/>
		</clipPath>
	</g>
</g>
</svg>
