<?xml version="1.0" standalone="no"?>
<!DOCTYPE svg PUBLIC "-//W3C//DTD SVG 20010904//EN"
 "http://www.w3.org/TR/2001/REC-SVG-20010904/DTD/svg10.dtd">
<svg version="1.0" xmlns="http://www.w3.org/2000/svg"
 width="256.000000pt" height="256.000000pt" viewBox="0 0 256.000000 256.000000"
 preserveAspectRatio="xMidYMid meet">
<metadata>
Created by potrace 1.11, written by Peter Selinger 2001-2013
</metadata>
<g transform="translate(0.000000,256.000000) scale(0.100000,-0.100000)"
fill="#000000" stroke="none">
<path d="M1253 2410 c-21 -50 -22 -50 -67 -50 -24 0 -47 -4 -51 -9 -3 -6 12
-24 34 -41 l39 -32 -13 -49 c-7 -27 -9 -51 -4 -54 4 -3 26 6 49 21 l40 27 41
-27 c22 -15 44 -25 47 -21 3 3 1 28 -4 55 l-10 50 38 30 c21 17 36 35 33 41
-4 5 -27 9 -51 9 -45 0 -46 0 -67 50 -11 28 -24 50 -27 50 -3 0 -16 -22 -27
-50z"/>
<path d="M742 2325 c-71 -48 -127 -109 -167 -180 -35 -65 -71 -163 -61 -172 8
-8 134 101 174 151 61 75 132 219 113 230 -4 3 -31 -10 -59 -29z"/>
<path d="M1756 2352 c-9 -15 55 -149 102 -209 48 -63 178 -180 188 -170 18 18
-63 192 -119 257 -50 58 -161 138 -171 122z"/>
<path d="M481 2291 c-55 -81 -80 -149 -89 -241 -8 -82 -5 -160 7 -160 13 0 89
143 112 210 24 74 39 250 21 250 -6 0 -29 -27 -51 -59z"/>
<path d="M2022 2258 c3 -57 14 -119 27 -158 23 -67 99 -210 112 -210 25 0 10
212 -21 289 -24 61 -96 171 -112 171 -7 0 -9 -29 -6 -92z"/>
<path d="M950 2303 c-10 -27 -17 -33 -41 -33 -34 0 -37 -10 -10 -34 15 -14 18
-26 14 -53 l-6 -35 27 17 c27 18 29 18 58 0 l31 -18 -7 35 c-5 27 -2 38 14 53
27 25 25 35 -8 35 -22 0 -32 7 -44 33 l-16 32 -12 -32z"/>
<path d="M1580 2300 c-10 -24 -19 -30 -41 -30 -34 0 -37 -10 -9 -35 16 -15 19
-26 14 -53 l-7 -35 31 18 c29 18 31 18 58 0 l27 -17 -6 35 c-4 27 -1 39 14 53
27 24 24 34 -10 34 -23 0 -31 6 -40 30 -5 17 -12 30 -14 30 -3 0 -10 -13 -17
-30z"/>
<path d="M271 2077 c-34 -90 -43 -144 -38 -226 5 -86 44 -226 62 -226 17 0 43
138 44 230 1 60 -5 113 -18 159 -23 83 -36 100 -50 63z"/>
<path d="M2261 2083 c-23 -44 -41 -146 -40 -229 1 -94 27 -230 44 -227 6 1 21
32 34 70 32 91 35 249 7 336 -21 65 -31 76 -45 50z"/>
<path d="M634 2007 c-87 -46 -130 -82 -179 -151 -39 -55 -85 -137 -85 -151 0
-27 152 70 222 142 68 70 140 194 111 193 -5 -1 -35 -15 -69 -33z"/>
<path d="M1850 2027 c0 -24 70 -131 118 -180 70 -72 222 -169 222 -142 0 14
-46 96 -85 150 -50 71 -98 111 -183 154 -70 35 -72 36 -72 18z"/>
<path d="M930 1925 c-9 -10 -10 -34 -6 -79 l7 -63 -68 4 c-64 5 -71 3 -101
-22 -43 -36 -56 -86 -38 -153 26 -102 123 -200 278 -282 75 -39 88 -51 129
-113 l47 -70 -35 -45 c-49 -65 -136 -249 -137 -292 l-1 -35 275 0 275 0 -1 35
c-1 43 -88 227 -137 292 l-35 45 47 70 c41 62 54 74 129 113 155 82 252 180
278 282 18 67 5 117 -38 153 -30 25 -37 27 -101 22 l-68 -4 7 63 c4 45 3 69
-6 79 -19 22 -681 22 -700 0z m20 -280 c0 -14 42 -159 55 -190 11 -24 -108 67
-130 101 -23 36 -20 93 7 103 28 10 68 2 68 -14z m748 -28 c2 -21 -4 -46 -13
-60 -22 -35 -141 -127 -130 -102 13 32 55 176 55 190 0 16 36 24 65 14 14 -4
21 -17 23 -42z"/>
<path d="M82 1789 c6 -111 24 -169 84 -265 44 -72 70 -101 80 -91 10 10 -16
187 -38 253 -22 67 -93 185 -117 192 -11 4 -13 -13 -9 -89z"/>
<path d="M2430 1839 c-65 -90 -102 -200 -115 -338 -8 -93 2 -92 71 11 65 98
85 160 92 276 5 106 -2 114 -48 51z"/>
<path d="M417 1678 c-73 -99 -113 -210 -122 -345 l-6 -88 36 40 c47 51 112
184 125 254 13 68 13 158 1 166 -5 3 -21 -9 -34 -27z"/>
<path d="M2107 1704 c-10 -10 -9 -102 3 -165 13 -70 78 -203 125 -254 l36 -40
-5 81 c-8 103 -28 183 -67 261 -36 70 -81 128 -92 117z"/>
<path d="M50 1537 c0 -44 38 -157 70 -211 38 -62 165 -194 177 -183 9 10 -32
137 -70 215 -28 59 -148 202 -168 202 -5 0 -9 -10 -9 -23z"/>
<path d="M2428 1491 c-67 -73 -112 -151 -147 -260 -23 -70 -26 -91 -13 -91 16
0 149 145 177 194 44 75 81 226 56 226 -5 0 -38 -31 -73 -69z"/>
<path d="M390 1298 c-6 -18 -14 -72 -17 -119 -5 -72 -2 -99 17 -160 28 -94 69
-174 81 -162 18 18 22 223 6 294 -15 63 -61 179 -70 179 -3 0 -10 -15 -17 -32z"/>
<path d="M2125 1275 c-45 -100 -58 -177 -51 -299 3 -61 10 -114 15 -119 12
-12 52 66 80 157 25 80 27 177 7 255 -8 29 -17 56 -20 59 -3 3 -17 -21 -31
-53z"/>
<path d="M0 1232 c0 -18 81 -133 121 -172 56 -54 249 -150 249 -124 0 16 -106
148 -151 188 -71 64 -219 136 -219 108z"/>
<path d="M2462 1205 c-39 -20 -93 -56 -121 -81 -45 -40 -151 -172 -151 -188 0
-25 191 69 247 123 40 38 123 154 123 173 0 15 -27 8 -98 -27z"/>
<path d="M540 924 c0 -57 33 -166 68 -223 46 -77 156 -191 160 -168 6 29 -38
169 -74 237 -34 64 -127 180 -145 180 -5 0 -9 -11 -9 -26z"/>
<path d="M1951 893 c-28 -32 -66 -87 -85 -123 -36 -69 -80 -208 -74 -238 4
-23 111 90 160 169 47 78 88 249 59 249 -5 0 -32 -26 -60 -57z"/>
<path d="M2317 905 c-38 -13 -93 -38 -122 -56 -60 -36 -203 -174 -192 -185 12
-12 115 16 186 52 87 43 231 191 204 207 -5 3 -39 -6 -76 -18z"/>
<path d="M169 901 c30 -55 135 -152 202 -185 72 -36 174 -64 187 -52 4 4 -32
45 -79 91 -92 89 -193 147 -278 161 -42 7 -43 6 -32 -15z"/>
<path d="M840 663 c0 -5 14 -31 30 -60 47 -82 123 -149 225 -199 132 -64 140
-60 72 32 -64 88 -142 152 -233 196 -86 40 -94 43 -94 31z"/>
<path d="M1625 632 c-50 -24 -103 -60 -141 -95 -61 -56 -142 -162 -132 -172 3
-3 24 2 47 10 125 44 235 131 292 230 45 79 45 79 -66 27z"/>
<path d="M301 631 c-25 -3 -46 -11 -48 -16 -4 -14 90 -68 157 -91 81 -26 300
-23 300 5 0 10 -142 75 -196 90 -50 13 -154 19 -213 12z"/>
<path d="M2120 633 c-84 -12 -270 -84 -270 -104 0 -13 69 -23 160 -23 96 0
166 19 248 68 77 45 72 52 -38 59 -41 2 -86 2 -100 0z"/>
<path d="M620 435 c-80 -23 -124 -41 -128 -53 -6 -19 107 -46 193 -47 61 0
100 7 165 28 137 45 140 52 33 73 -85 17 -204 16 -263 -1z"/>
<path d="M1673 436 c-103 -21 -99 -29 37 -73 65 -21 104 -28 165 -28 86 1 199
28 193 47 -3 7 -35 23 -74 36 -84 30 -227 38 -321 18z"/>
<path d="M913 325 c-67 -18 -183 -71 -183 -83 0 -30 180 -42 265 -17 67 19
195 81 195 94 0 24 -194 28 -277 6z"/>
<path d="M1393 333 c-38 -7 -27 -21 45 -57 108 -54 172 -69 271 -63 90 5 121
13 121 29 0 13 -114 64 -185 83 -55 14 -198 19 -252 8z"/>
<path d="M1152 219 c-12 -5 -27 -20 -34 -34 -10 -22 -8 -30 9 -53 24 -33 58
-40 84 -16 19 17 25 59 11 80 -14 21 -47 32 -70 23z"/>
<path d="M1370 222 c-41 -12 -54 -77 -21 -106 26 -24 60 -17 85 17 19 26 19
30 6 54 -16 28 -46 43 -70 35z"/>
</g>
</svg>
